PathFileType	4	(X/Y/Z)	s08c0102.trc
DataRate	CameraRate	NumFrames	NumMarkers	Units	OrigDataRate	OrigDataStartFrame	OrigNumFrames
200	200	6	50	mm	200	0	2000
Frame#	Time	racr			lacr			c7			jug			rlel			rdr			llel			ldr			s2			lic			ric			lasi			rasi			rpsi			lpsi			rgt			lgt			rth1			rth2			rth3			rth4			rlfc			rmfc			rsh1			rsh2			rsh3			rsh4			rlmal			rmmal			rcal			rtoe			rmt5			lth1			lth2			lth4			lth3			llfc			lmfc			llmal			lmmal			lcal			lmt5			lsh1			lsh2			lsh3			lsh4			ltoe			SBIKE			LBIKE			RBIKE			
		X1	Y1	Z1	X2	Y2	Z2	X3	Y3	Z3	X4	Y4	Z4	X5	Y5	Z5	X6	Y6	Z6	X7	Y7	Z7	X8	Y8	Z8	X9	Y9	Z9	X10	Y10	Z10	X11	Y11	Z11	X12	Y12	Z12	X13	Y13	Z13	X14	Y14	Z14	X15	Y15	Z15	X16	Y16	Z16	X17	Y17	Z17	X18	Y18	Z18	X19	Y19	Z19	X20	Y20	Z20	X21	Y21	Z21	X22	Y22	Z22	X23	Y23	Z23	X24	Y24	Z24	X25	Y25	Z25	X26	Y26	Z26	X27	Y27	Z27	X28	Y28	Z28	X29	Y29	Z29	X30	Y30	Z30	X31	Y31	Z31	X32	Y32	Z32	X33	Y33	Z33	X34	Y34	Z34	X35	Y35	Z35	X36	Y36	Z36	X37	Y37	Z37	X38	Y38	Z38	X39	Y39	Z39	X40	Y40	Z40	X41	Y41	Z41	X42	Y42	Z42	X43	Y43	Z43	X44	Y44	Z44	X45	Y45	Z45	X46	Y46	Z46	X47	Y47	Z47	X48	Y48	Z48	X49	Y49	Z49	X50	Y50	Z50	
0	0.0000	557.766586	1378.315794	-72.096107	574.466321	1386.180117	-429.471527	543.227286	1441.059399	-242.706472	531.391873	1290.919251	-245.911109	631.711015	1134.061853	-4.744198	807.741046	886.846395	-69.682519	660.756581	1141.677323	-463.793177	813.085986	888.202779	-417.735446	-2.487598	1204.837502	-247.444636	171.091718	1163.380314	-387.086874	160.027098	1198.782604	-81.939957	185.792668	1111.196777	-363.694836	174.170644	1144.425520	-114.282581	30.804815	1245.814063	-197.644161	38.464595	1241.174519	-293.668089	72.487402	1114.387263	-35.444094	79.913632	1055.898116	-418.971050	214.032487	1024.331512	-33.868363	300.710801	1005.268907	-36.008234	365.096477	947.063428	-40.482375	315.887215	1036.776989	-50.480094	463.444208	875.357676	-62.020988	473.015193	874.629463	-189.603058	397.714841	763.106442	-32.439946	388.640250	675.573341	-55.904711	336.079438	606.192668	-58.644404	414.064573	670.475346	-83.917851	286.000966	498.733955	-69.463831	302.011466	521.865592	-155.252238	207.080541	462.122516	-111.873627	503.754187	480.208722	-110.756511	419.614048	440.999011	-43.576748	118.445537	923.757324	-429.002343	164.541260	849.704329	-422.045473	191.538576	861.829286	-440.179214	166.127033	760.960728	-418.719736	188.832501	633.965944	-390.155618	175.218812	613.149280	-289.605208	12.002579	251.825462	-396.261284	29.960942	273.241045	-310.656742	-55.430986	209.144138	-356.828372	158.100191	204.669305	-419.561228	135.284187	515.317316	-419.357279	115.766396	433.948198	-399.010676	62.254228	364.274527	-404.490143	132.358969	430.540244	-364.273556	230.100966	252.876457	-350.708501	-139.557181	939.789019	-228.953332	17.580306	79.767161	-427.598441	16.864942	80.040372	-28.922504	
1	0.0050	557.855013	1378.293302	-72.028632	574.590786	1386.228321	-429.508034	543.368005	1441.074598	-242.723966	531.555088	1290.959584	-245.894573	631.652121	1134.021895	-4.689462	807.660645	886.883859	-69.712959	660.875920	1141.721692	-463.963669	813.079590	888.206657	-417.761608	-2.356325	1204.875917	-247.436430	171.165543	1163.242187	-387.128342	160.238367	1198.790311	-82.090880	185.846098	1111.070806	-363.788150	174.279590	1144.476119	-114.370460	30.912539	1245.890559	-197.636419	38.684642	1241.227796	-293.686338	72.627672	1114.572989	-35.391738	79.711232	1055.833736	-418.893583	214.243518	1024.787659	-33.847757	300.896680	1005.747490	-36.019308	365.362834	947.578712	-40.421223	316.024408	1037.233006	-50.495509	463.744958	875.871399	-62.068850	473.460776	875.242015	-189.614529	397.841388	763.705230	-32.413345	388.363780	676.028324	-55.732006	335.994741	606.876551	-58.675247	414.088674	671.063783	-83.894712	285.625234	499.319419	-69.447683	301.823275	522.656630	-155.285307	206.781350	462.972722	-111.971706	503.472771	480.449239	-110.735170	419.203354	441.527403	-43.587496	117.811236	923.613366	-429.041150	163.532007	849.326714	-421.997639	190.449091	861.304565	-440.097254	164.695812	760.586173	-418.671075	187.029853	633.594701	-390.146484	173.345278	612.732845	-289.645465	11.964937	250.660612	-396.254926	31.342029	271.152485	-309.318833	-55.226937	207.584523	-356.809213	158.319108	204.239334	-419.553241	133.886115	514.745556	-419.396624	114.819513	433.209184	-398.969640	61.601922	363.266118	-404.509330	131.384696	429.902489	-364.305694	230.050844	252.846152	-350.723307	-139.567487	939.791087	-228.930508	17.540057	79.859484	-427.641679	16.839658	80.078045	-28.938761	
2	0.0100	557.897210	1378.266468	-71.967964	574.693585	1386.303225	-429.559486	543.473442	1441.074723	-242.747190	531.723593	1290.990987	-245.938523	631.570714	1133.978038	-4.634061	807.635552	886.899727	-69.701388	660.988448	1141.755616	-464.082141	813.098026	888.232102	-417.785694	-2.233401	1204.900245	-247.421222	171.212360	1163.143561	-387.139447	160.404389	1198.835209	-82.198856	185.866294	1110.900262	-363.847963	174.375048	1144.519517	-114.470030	30.992936	1245.966328	-197.616463	38.749691	1241.244748	-293.687877	72.768278	1114.739628	-35.331754	79.547743	1055.813669	-418.839536	214.421061	1025.061407	-33.806189	301.067794	1006.197588	-36.063907	365.582369	948.022143	-40.408523	316.169720	1037.619564	-50.557889	464.014301	876.420737	-62.090290	473.739776	875.675448	-189.647572	397.958767	764.249691	-32.416522	388.140415	676.534582	-55.570488	335.918278	607.528002	-58.661364	413.456002	672.155881	-85.977885	285.589210	500.308914	-69.292920	301.626342	523.311791	-155.255030	206.457065	463.934114	-111.928071	503.196181	480.706934	-110.740671	418.835359	441.971267	-43.606422	117.168588	923.484720	-429.139317	162.571339	848.947609	-421.987417	189.407067	860.876545	-440.001490	163.286012	760.167810	-418.638606	185.311765	633.272071	-390.152133	171.486679	612.381000	-289.637462	11.962939	249.516233	-396.221153	31.226792	270.027879	-309.286823	-55.003430	206.091912	-356.753085	158.561704	203.811867	-419.520246	132.561456	514.206195	-419.460552	113.850019	432.633789	-399.076825	61.036824	362.402114	-404.543589	130.541928	429.275144	-364.308155	230.043001	252.783535	-350.737453	-139.566346	939.795573	-228.915834	17.525317	79.847345	-427.634383	16.865924	80.030895	-28.935107	
3	0.0150	557.905020	1377.944989	-72.572876	572.726196	1386.239703	-430.127174	543.739271	1441.159401	-242.868278	524.175957	1287.696111	-239.386304	631.849830	1133.909035	-5.130098	807.619642	886.907583	-69.685457	659.980766	1142.819487	-467.998713	813.118181	888.227161	-417.803028	-2.111418	1204.941979	-247.410891	171.744569	1164.641046	-392.673333	160.535066	1198.794370	-82.299217	187.382347	1111.529870	-368.767625	174.438837	1144.581153	-114.529664	30.951065	1246.083151	-197.768854	38.678939	1241.366107	-293.580240	72.785807	1114.848657	-35.329877	79.605404	1055.732748	-418.486358	214.567539	1025.329774	-33.800687	301.388492	1007.069368	-35.593142	365.745688	948.087512	-41.270904	317.247192	1037.585034	-49.652744	464.252163	876.786507	-63.241592	477.674642	876.754307	-188.808385	398.189587	764.889929	-32.442026	385.512590	677.014201	-53.352221	335.639716	608.302240	-58.625468	414.129266	673.088762	-88.886123	285.228719	501.178171	-69.064626	301.644950	526.706742	-160.970438	206.166023	464.745064	-111.974373	502.915601	480.970032	-110.754778	418.369651	442.506413	-43.234868	117.479961	925.593035	-433.577057	161.702861	848.593744	-421.803945	190.708717	859.765487	-431.110193	162.315512	759.693947	-417.569452	187.454024	637.624129	-398.494572	168.993006	612.182057	-289.622680	12.422277	247.444933	-394.664447	31.096462	269.153507	-309.235221	-54.764778	204.751897	-356.688933	157.983314	205.295642	-422.235732	131.450069	513.563822	-419.300025	112.792972	433.652188	-402.086949	59.239203	363.227443	-407.235521	129.587881	430.290956	-367.261845	230.047441	252.705287	-350.746406	-139.569175	939.770262	-228.896464	17.559044	79.727086	-427.543131	16.246367	78.686436	-31.141912	
4	0.0200	557.904163	1377.781294	-72.854422	570.060788	1386.118921	-430.859885	543.807945	1441.029535	-243.030928	524.276175	1286.215878	-237.744353	631.436261	1133.098485	-5.329902	807.988943	886.732879	-69.124241	662.545017	1142.047869	-461.534172	813.078514	888.119617	-417.720875	-1.949786	1204.618660	-247.418256	171.386369	1163.901182	-390.373058	160.815032	1198.680235	-82.228725	189.392898	1112.449362	-375.298053	174.473261	1144.242804	-114.691069	30.977142	1245.687194	-197.800358	38.789365	1241.122086	-293.486616	72.511024	1114.926445	-35.244862	79.014460	1055.544027	-417.747122	214.481178	1025.367119	-33.977599	301.392780	1007.337563	-36.261353	365.611252	948.315032	-42.586996	317.125485	1037.749560	-49.749057	465.036081	877.184205	-62.139265	483.058484	878.062029	-187.624850	398.207046	765.487479	-32.886412	387.643405	676.755196	-50.621216	336.245315	608.618326	-57.782015	414.435423	673.727137	-90.340426	285.199624	502.010302	-67.805355	301.207265	526.377319	-159.252898	205.948112	465.376210	-112.105202	502.760210	481.058190	-110.365310	418.169734	442.695782	-43.820827	116.261247	925.206516	-433.346693	160.707210	848.257823	-421.790616	192.768553	858.459742	-419.366044	160.992808	759.260727	-417.468984	184.675033	635.432950	-394.741240	168.758296	611.783320	-287.404339	11.539868	247.032066	-395.206738	31.372977	268.029725	-309.200346	-54.462841	203.317012	-356.566604	159.018607	202.846085	-419.441717	129.437289	513.725242	-420.469379	112.059660	431.757461	-399.125234	59.957927	360.747762	-404.557757	128.846087	428.452607	-364.527836	230.089851	252.439748	-350.808494	-139.454023	939.689533	-228.847601	17.331693	80.091778	-427.501455	16.213145	78.769750	-31.132212	
5	0.0250	557.895563	1377.739854	-72.883459	568.069286	1386.022171	-431.406403	543.874664	1441.004469	-243.105341	525.152729	1285.638545	-235.755530	632.609161	1132.529775	-7.980315	808.681299	886.655464	-68.903456	661.412936	1141.921106	-463.968411	813.072199	888.122864	-417.749046	-1.719952	1205.027343	-247.489473	171.330218	1162.960988	-387.111665	160.832442	1199.251767	-83.108908	190.896604	1113.148836	-380.190167	174.513327	1144.581722	-114.780033	31.166125	1246.405002	-197.691350	38.903719	1241.446323	-293.743008	73.074046	1115.333393	-35.166050	78.571096	1055.619795	-417.633393	214.789570	1025.952269	-33.865498	301.495376	1007.700211	-36.568653	365.633285	948.609537	-43.155104	317.449653	1038.416579	-49.863769	465.283272	877.434749	-62.257072	487.684411	879.182356	-186.624927	398.228355	765.996819	-33.115033	387.620018	677.821927	-51.188542	336.157887	609.202466	-57.720083	414.457909	674.130514	-90.634222	284.974458	502.401927	-68.700782	300.589690	527.524761	-160.709769	205.601683	466.208641	-111.964097	502.411030	481.420821	-110.448294	417.867862	443.024128	-44.104698	115.843167	923.279537	-428.457057	159.846896	848.076289	-421.733435	194.001044	857.447903	-410.711730	159.713696	759.109013	-417.408449	180.559020	632.486458	-389.803005	167.141317	611.588804	-287.380608	12.387809	245.500114	-394.548114	30.992841	267.558832	-308.755020	-54.187040	202.075848	-356.534249	159.258449	202.522353	-419.469759	128.865472	515.431082	-424.350581	111.473271	431.010613	-399.133200	59.498265	360.003632	-404.615356	128.148788	427.857999	-364.554528	230.163019	252.424101	-350.784219	-139.537192	939.759930	-228.898065	17.487439	79.890189	-427.463018	16.207005	78.900359	-31.011789	
